<svg width="24" height="18" viewBox="0 0 24 18" fill="none" xmlns="http://www.w3.org/2000/svg">
<path d="M12 0C15.3797 0 18.3386 1.63286 20.8544 4.31637C21.7185 5.23814 22.4693 6.22216 23.1054 7.20698C23.4042 7.66965 23.6303 8.05662 23.7821 8.33783L23.8944 8.55267C24.0352 8.83419 24.0352 9.16567 23.8944 9.44719C23.7851 9.66585 23.6008 9.99807 23.3437 10.415L23.1054 10.7929C22.4693 11.7777 21.7185 12.7617 20.8544 13.6835C18.3386 16.367 15.3797 17.9999 12 17.9999C8.62026 17.9998 5.66137 16.367 3.14557 13.6835C2.28144 12.7617 1.53066 11.7777 0.894608 10.7929C0.595796 10.3302 0.369681 9.94323 0.217855 9.66204L0.105551 9.44719C-0.0351837 9.16569 -0.0351837 8.83417 0.105551 8.55267C0.214877 8.33402 0.399165 8.0018 0.656328 7.5849L0.894608 7.20698C1.53066 6.22216 2.28144 5.23814 3.14557 4.31637C5.66137 1.63285 8.62026 3.35149e-05 12 0ZM12 1.99998C9.25492 2.00002 6.77612 3.36726 4.60454 5.68355C3.82828 6.51157 3.14904 7.40296 2.57428 8.29291C2.47413 8.44799 2.38115 8.59765 2.29499 8.74017L2.14069 8.99993L2.29499 9.25969L2.42975 9.47942L2.57428 9.70696C3.14904 10.5969 3.82828 11.4883 4.60454 12.3163C6.77612 14.6326 9.25492 15.9998 12 15.9999C14.7451 15.9999 17.2239 14.6326 19.3954 12.3163C20.1717 11.4883 20.8509 10.5969 21.4257 9.70696C21.5259 9.55187 21.6188 9.40222 21.705 9.25969L21.8583 8.99993L21.705 8.74017L21.5702 8.52044L21.4257 8.29291C20.8509 7.40296 20.1717 6.51157 19.3954 5.68355C17.2239 3.36727 14.7451 1.99998 12 1.99998ZM12 4.99996C14.2091 4.99996 16 6.79081 16 8.99993C16 11.2091 14.2091 12.9999 12 12.9999C9.79087 12.9999 8.00002 11.2091 8.00002 8.99993C8.00002 6.79081 9.79087 4.99996 12 4.99996ZM12 6.99995C10.8954 6.99995 10 7.89537 10 8.99993C10 10.1045 10.8954 10.9999 12 10.9999C13.1046 10.9999 14 10.1045 14 8.99993C14 7.89537 13.1046 6.99995 12 6.99995Z" fill="#7D8592"/>
</svg>
