<svg width="16" height="18" viewBox="0 0 16 18" fill="none" xmlns="http://www.w3.org/2000/svg">
<path d="M11.5554 0C12.0463 4.29493e-05 12.4446 0.39823 12.4446 0.889115V1.7884L12.6277 1.79247C14.5061 1.8885 16 3.45182 16 5.36521V14.3062C15.9999 16.2813 14.408 17.8828 12.4446 17.883H3.55544C1.59187 17.883 7.28535e-05 16.2814 0 14.3062V5.36521C0 3.45173 1.4938 1.88837 3.37233 1.79247L3.55544 1.7884V0.889115C3.55544 0.398203 3.95365 0 4.44456 0C4.93538 0.00010119 5.33367 0.398266 5.33367 0.889115V1.7884H10.6663V0.889115C10.6663 0.398203 11.0645 0 11.5554 0ZM5.33367 3.58189C5.33362 4.0727 4.93535 4.47091 4.44456 4.47101C3.95368 4.47101 3.5555 4.07276 3.55544 3.58189V3.57681L3.38149 3.58494C2.5248 3.66868 1.84591 4.3646 1.7823 5.23194L1.77823 5.36521V6.2706C1.82799 6.2633 1.87904 6.25941 1.93082 6.25941H14.0692C14.121 6.25941 14.1719 6.26328 14.2218 6.2706V5.36521C14.2218 4.42247 13.4967 3.65016 12.5768 3.58189L12.4446 3.57681V3.58189C12.4445 4.07273 12.0463 4.47096 11.5554 4.47101C11.0646 4.47101 10.6664 4.07276 10.6663 3.58189V3.57681H5.33367V3.58189Z" fill="#7D8592"/>
</svg>
