<svg width="23" height="24" viewBox="0 0 23 24" fill="none" xmlns="http://www.w3.org/2000/svg">
<path fill-rule="evenodd" clip-rule="evenodd" d="M18.1576 11.3871L18.0813 11.2929L13.4938 6.29289C13.1355 5.90237 12.5545 5.90237 12.1962 6.29289C11.8655 6.65338 11.84 7.22061 12.1199 7.6129L12.1962 7.70711L15.2167 11H4.5875C4.08078 11 3.67 11.4477 3.67 12C3.67 12.5128 4.02419 12.9355 4.4805 12.9933L4.5875 13H15.2167L12.1962 16.2929C11.8655 16.6534 11.84 17.2206 12.1199 17.6129L12.1962 17.7071C12.527 18.0676 13.0474 18.0953 13.4073 17.7903L13.4938 17.7071L18.0813 12.7071C18.412 12.3466 18.4375 11.7794 18.1576 11.3871Z" fill="white"/>
</svg>
