<svg width="14" height="18" viewBox="0 0 14 18" fill="none" xmlns="http://www.w3.org/2000/svg">
<path d="M6.99952 0C10.8722 0 14 3.23396 14 7.20858C13.9999 9.35662 12.3361 12.3839 9.03735 16.4341C8.92384 16.5734 8.79659 16.7011 8.65706 16.8144C7.53157 17.7281 5.87831 17.5559 4.96268 16.4281L4.6919 16.0926C1.57344 12.1978 0.00013253 9.28299 0 7.20858C0 3.23412 3.12708 0.000258948 6.99952 0ZM6.99952 1.75013C4.10691 1.75039 1.75013 4.18776 1.75013 7.20858C1.75029 8.75735 3.17736 11.4004 6.05676 14.9965L6.32356 15.3281C6.62822 15.7029 7.17899 15.76 7.55402 15.4555C7.60041 15.4178 7.64269 15.3754 7.68046 15.3291C10.7357 11.5778 12.2497 8.82279 12.2499 7.20858C12.2499 4.1876 9.89234 1.75013 6.99952 1.75013ZM7.00051 3.50026C8.93326 3.50054 10.4998 5.0677 10.4998 7.00051C10.4995 8.93308 8.93308 10.4995 7.00051 10.4998C5.0677 10.4998 3.50054 8.93326 3.50026 7.00051C3.50026 5.06752 5.06752 3.50026 7.00051 3.50026ZM7.00051 5.25038C6.03402 5.25038 5.25038 6.03402 5.25038 7.00051C5.25067 7.96677 6.03419 8.75064 7.00051 8.75064C7.96659 8.75035 8.75035 7.96659 8.75064 7.00051C8.75064 6.03419 7.96676 5.25067 7.00051 5.25038Z" fill="#7D8592"/>
</svg>
