<svg width="17" height="18" viewBox="0 0 17 18" fill="none" xmlns="http://www.w3.org/2000/svg">
<path d="M2.15578 0.135129C2.94248 -0.106934 3.79411 -0.0214303 4.5167 0.372712L15.4078 6.31329C16.8883 7.12093 17.4341 8.97599 16.6265 10.4566C16.3457 10.9713 15.9225 11.3945 15.4078 11.6753L4.5167 17.6159C3.03611 18.4235 1.18105 17.8777 0.373407 16.3972C-0.0206262 15.6747 -0.106109 14.8238 0.135824 14.0372L1.68757 8.9943L0.135824 3.95137C-0.360005 2.33963 0.544194 0.631333 2.15578 0.135129ZM3.54151 2.16005C3.30076 2.02879 3.01731 1.99996 2.7552 2.08053C2.25626 2.23406 1.9607 2.73647 2.05339 3.23763L2.08122 3.35294L3.55643 8.14636H8.90652C9.46871 8.14636 9.92445 8.6021 9.92445 9.16429C9.92441 9.68628 9.53104 10.1165 9.02482 10.1753L8.90652 10.1822H3.45105L2.08122 14.6357C2.00063 14.8977 2.02955 15.1812 2.16075 15.422C2.41074 15.8802 2.96161 16.07 3.43416 15.8792L3.54151 15.8285L14.4336 9.88797C14.605 9.79438 14.7456 9.65286 14.8391 9.48139C15.089 9.02317 14.9501 8.45728 14.534 8.16326L14.4336 8.10063L3.54151 2.16005Z" fill="white"/>
</svg>
