<svg width="14" height="14" viewBox="0 0 14 14" fill="none" xmlns="http://www.w3.org/2000/svg">
<g clip-path="url(#clip0_2025_1308)">
<path d="M14 7C14 3.13404 10.866 0 7 0C3.13404 0 0 3.13404 0 7C0 10.2827 2.26016 13.0374 5.30908 13.7939V9.1392H3.86568V7H5.30908V6.07824C5.30908 3.69572 6.38736 2.5914 8.72648 2.5914C9.17 2.5914 9.93524 2.67848 10.2483 2.76528V4.70428C10.0831 4.68692 9.79608 4.67824 9.43964 4.67824C8.29192 4.67824 7.8484 5.11308 7.8484 6.24344V7H10.1349L9.74204 9.1392H7.8484V13.9488C11.3145 13.5302 14.0003 10.579 14.0003 7H14Z" fill="#0866FF"/>
<path d="M9.74175 9.1392L10.1346 7H7.84811V6.24344C7.84811 5.11308 8.29163 4.67824 9.43935 4.67824C9.79579 4.67824 10.0828 4.68692 10.248 4.70428V2.76528C9.93495 2.6782 9.16971 2.5914 8.72619 2.5914C6.38707 2.5914 5.30879 3.69572 5.30879 6.07824V7H3.86539V9.1392H5.30879V13.7939C5.85031 13.9283 6.41675 14 6.99971 14C7.28671 14 7.56979 13.9824 7.84783 13.9488V9.1392H9.74147H9.74175Z" fill="white"/>
</g>
<defs>
<clipPath id="clip0_2025_1308">
<rect width="14" height="14" fill="white"/>
</clipPath>
</defs>
</svg>
