<svg width="18" height="18" viewBox="0 0 18 18" fill="none" xmlns="http://www.w3.org/2000/svg">
<path d="M8.99949 0C13.9698 0 17.9998 4.02918 18 8.99949C18 13.97 13.97 18 8.99949 18C4.02918 17.9998 0 13.9698 0 8.99949C0.000184208 4.02929 4.02929 0.000184204 8.99949 0ZM8.99949 1.8001C5.02338 1.80029 1.80029 5.02338 1.8001 8.99949C1.8001 12.9757 5.02327 16.1997 8.99949 16.1999C12.9759 16.1999 16.1999 12.9759 16.1999 8.99949C16.1997 5.02327 12.9757 1.8001 8.99949 1.8001ZM8.99949 3.6002C9.46096 3.6002 9.84131 3.94729 9.8934 4.39479L9.89954 4.50026V8.63599L12.9601 9.97531C13.3829 10.1603 13.5925 10.6309 13.4608 11.0617L13.424 11.16C13.239 11.5829 12.7685 11.7925 12.3376 11.6607L12.2393 11.6239L8.63906 10.049C8.34796 9.92162 8.14838 9.65198 8.10763 9.34251L8.09944 9.22476V4.50026C8.09944 4.00332 8.5026 3.60039 8.99949 3.6002Z" fill="#7D8592"/>
</svg>
